<?xml version="1.0" encoding="utf-8" ?>
<svg baseProfile="tiny" height="512px" version="1.2" width="512px" xmlns="http://www.w3.org/2000/svg" xmlns:ev="http://www.w3.org/2001/xml-events" xmlns:xlink="http://www.w3.org/1999/xlink"><defs><linearGradient id="grad1" x1="0" x2="0" y1="0" y2="1"><stop offset="0" stop-color="orange" /><stop offset="1" stop-color="red" /></linearGradient></defs><polygon fill="none" points="193,11 192,12 186,12 185,13 180,13 179,14 176,14 175,15 172,15 171,16 169,16 168,17 166,17 165,18 163,18 162,19 161,19 160,20 158,20 157,21 156,21 155,22 154,22 153,23 152,23 151,24 150,24 149,25 148,25 147,26 146,26 144,28 143,28 142,29 141,29 139,31 138,31 136,33 135,33 132,36 131,36 124,43 123,43 118,48 118,49 112,55 112,56 109,59 109,60 107,62 107,63 105,65 105,66 103,68 103,69 102,70 102,71 100,73 100,74 99,75 99,76 98,77 98,78 97,79 97,81 96,82 96,83 95,84 95,85 94,86 94,88 93,89 93,91 92,92 92,94 91,95 91,97 90,98 90,101 89,102 89,106 88,107 84,107 83,108 79,108 78,109 77,109 73,113 73,114 72,115 72,116 71,117 71,159 72,160 72,161 73,162 73,163 77,167 78,167 79,168 83,168 84,169 103,169 104,168 108,168 110,166 111,166 114,163 114,162 115,161 115,160 116,159 116,117 115,116 115,115 114,114 114,113 110,109 109,109 108,108 104,108 103,107 102,107 101,106 101,104 102,103 102,101 103,100 103,98 104,97 104,95 105,94 105,92 106,91 106,90 107,89 107,87 108,86 108,85 109,84 109,83 110,82 110,81 111,80 111,79 113,77 113,76 114,75 114,74 116,72 116,71 118,69 118,68 121,65 121,64 127,58 127,57 132,52 133,52 139,46 140,46 143,43 144,43 146,41 147,41 149,39 150,39 152,37 153,37 154,36 155,36 156,35 157,35 158,34 159,34 160,33 161,33 162,32 163,32 164,31 166,31 167,30 168,30 169,29 171,29 172,28 174,28 175,27 178,27 179,26 182,26 183,25 186,25 187,24 193,24 194,23 217,23 218,24 223,24 224,25 228,25 229,26 232,26 233,27 236,27 237,28 239,28 240,29 242,29 243,30 244,30 245,31 247,31 248,32 249,32 250,33 251,33 252,34 253,34 254,35 255,35 256,36 257,36 259,38 260,38 261,39 262,39 264,41 265,41 267,43 268,43 272,47 273,47 289,63 289,64 292,67 292,68 295,71 295,72 296,73 296,74 298,76 298,77 299,78 299,79 301,81 301,82 302,83 302,85 303,86 303,87 304,88 304,89 305,90 305,91 306,92 306,94 307,95 307,97 308,98 308,100 309,101 309,104 310,105 310,106 309,107 308,107 307,108 303,108 302,109 301,109 297,113 297,114 296,115 296,116 295,117 295,156 294,157 284,157 283,156 283,155 284,154 284,152 285,151 285,147 286,146 286,141 287,140 287,119 286,118 286,113 285,112 285,109 284,108 284,106 283,105 283,103 282,102 282,100 281,99 281,98 280,97 280,95 279,94 279,93 278,92 278,91 276,89 276,88 275,87 275,86 273,84 273,83 270,80 270,79 256,65 255,65 252,62 251,62 250,61 249,61 247,59 246,59 245,58 244,58 243,57 242,57 241,56 240,56 239,55 238,55 237,54 235,54 234,53 232,53 231,52 229,52 228,51 226,51 225,50 221,50 220,49 213,49 212,48 199,48 198,49 191,49 190,50 186,50 185,51 182,51 181,52 179,52 178,53 177,53 176,54 174,54 173,55 172,55 171,56 170,56 169,57 168,57 167,58 166,58 165,59 164,59 163,60 162,60 160,62 159,62 157,64 156,64 151,69 150,69 144,75 144,76 140,80 140,81 137,84 137,85 136,86 136,87 134,89 134,90 133,91 133,92 132,93 132,94 131,95 131,96 130,97 130,99 129,100 129,101 128,102 128,104 127,105 127,107 126,108 126,111 125,112 125,117 124,118 124,142 125,143 125,148 126,149 126,152 127,153 127,155 128,156 128,158 129,159 129,161 130,162 130,163 131,164 131,165 132,166 132,167 133,168 133,169 134,170 134,171 136,173 136,174 137,175 137,176 140,179 140,180 144,184 144,185 151,192 152,192 154,194 153,195 152,195 151,196 148,196 147,197 144,197 143,198 141,198 140,199 138,199 137,200 135,200 134,201 132,201 131,202 129,202 128,203 126,203 125,204 124,204 123,205 121,205 120,206 119,206 118,207 117,207 116,208 115,208 114,209 113,209 112,210 111,210 110,211 109,211 108,212 107,212 106,213 105,213 103,215 102,215 100,217 99,217 98,218 97,218 94,221 93,221 90,224 89,224 74,239 74,240 71,243 71,244 69,246 69,247 67,249 67,250 66,251 66,252 65,253 65,254 64,255 64,256 63,257 63,258 62,259 62,261 61,262 61,263 60,264 60,266 59,267 59,270 58,271 58,274 57,275 57,281 56,282 56,355 55,356 15,356 14,357 12,357 10,359 9,359 7,361 7,362 5,364 5,366 4,367 4,371 3,372 3,385 4,386 4,391 5,392 5,393 6,394 6,395 11,400 12,400 13,401 15,401 16,402 17,402 18,403 18,497 19,498 19,499 20,500 22,500 23,501 443,501 444,500 446,500 448,498 448,496 449,495 449,403 450,402 451,402 452,401 453,401 454,400 455,400 456,399 457,399 459,397 459,396 461,394 461,393 462,392 462,389 463,388 463,369 462,368 462,366 461,365 461,364 460,363 460,362 457,359 456,359 454,357 453,357 452,356 445,356 444,355 444,338 443,337 443,336 442,335 442,334 440,332 439,332 438,331 439,330 439,325 440,324 440,318 441,317 441,312 442,311 442,305 443,304 443,299 444,298 444,292 445,291 445,286 446,285 446,279 447,278 447,273 448,272 448,266 449,265 449,252 448,251 448,250 447,249 447,248 442,243 441,243 440,242 439,242 438,241 338,241 336,239 336,238 322,224 321,224 318,221 317,221 314,218 313,218 312,217 311,217 309,215 308,215 306,213 305,213 304,212 303,212 302,211 301,211 300,210 299,210 298,209 297,209 296,208 295,208 294,207 293,207 292,206 291,206 290,205 288,205 287,204 286,204 285,203 283,203 282,202 280,202 279,201 277,201 276,200 274,200 273,199 271,199 270,198 268,198 267,197 264,197 263,196 260,196 259,195 258,195 257,194 262,189 263,189 265,187 265,186 271,180 271,179 273,177 273,176 275,174 275,173 276,172 276,171 278,169 327,169 328,168 331,168 332,167 333,167 334,166 335,166 338,163 338,162 339,161 339,159 340,158 340,118 339,117 339,115 338,114 338,113 335,110 334,110 333,109 332,109 331,108 328,108 327,107 323,107 322,106 322,103 321,102 321,99 320,98 320,95 319,94 319,92 318,91 318,89 317,88 317,87 316,86 316,84 315,83 315,82 314,81 314,80 313,79 313,78 312,77 312,76 311,75 311,74 310,73 310,72 309,71 309,70 307,68 307,67 306,66 306,65 304,63 304,62 301,59 301,58 298,55 298,54 281,37 280,37 277,34 276,34 274,32 273,32 271,30 270,30 268,28 267,28 266,27 265,27 263,25 262,25 261,24 260,24 259,23 258,23 257,22 256,22 255,21 253,21 252,20 251,20 250,19 248,19 247,18 246,18 245,17 243,17 242,16 239,16 238,15 236,15 235,14 231,14 230,13 226,13 225,12 219,12 218,11" stroke="url(#grad1)" stroke-width="2" /><polygon fill="none" points="424,10 423,11 414,11 413,12 409,12 408,13 405,13 404,14 402,14 401,15 399,15 398,16 396,16 395,17 394,17 393,18 392,18 391,19 390,19 389,20 388,20 387,21 386,21 385,22 384,22 382,24 381,24 378,27 377,27 372,32 371,32 369,34 369,35 363,41 363,42 360,45 360,46 358,48 358,49 357,50 357,51 356,52 356,53 355,54 355,55 354,56 354,57 353,58 353,59 352,60 352,61 351,62 351,64 350,65 350,67 349,68 349,71 348,72 348,76 347,77 347,84 346,85 346,97 347,98 347,105 348,106 348,110 349,111 349,114 350,115 350,117 351,118 351,120 352,121 352,122 353,123 353,124 354,125 354,126 355,127 355,128 356,129 356,130 357,131 357,134 356,135 356,138 355,139 355,142 354,143 354,145 353,146 353,149 352,150 352,153 351,154 351,156 350,157 350,160 349,161 349,164 350,165 350,166 352,168 354,168 355,169 356,169 357,168 360,168 361,167 364,167 365,166 367,166 368,165 371,165 372,164 375,164 376,163 379,163 380,162 382,162 383,161 387,161 388,162 389,162 390,163 391,163 392,164 393,164 394,165 395,165 396,166 398,166 399,167 401,167 402,168 404,168 405,169 408,169 409,170 413,170 414,171 422,171 423,172 431,172 432,171 440,171 441,170 445,170 446,169 449,169 450,168 452,168 453,167 455,167 456,166 457,166 458,165 460,165 461,164 462,164 463,163 464,163 465,162 466,162 467,161 468,161 470,159 471,159 473,157 474,157 477,154 478,154 490,142 490,141 493,138 493,137 495,135 495,134 497,132 497,131 498,130 498,129 499,128 499,127 500,126 500,125 501,124 501,123 502,122 502,120 503,119 503,117 504,116 504,114 505,113 505,110 506,109 506,105 507,104 507,92 508,91 507,90 507,78 506,77 506,73 505,72 505,69 504,68 504,66 503,65 503,63 502,62 502,60 501,59 501,58 500,57 500,56 499,55 499,54 498,53 498,52 497,51 497,50 495,48 495,47 493,45 493,44 490,41 490,40 478,28 477,28 474,25 473,25 471,23 470,23 468,21 467,21 466,20 465,20 464,19 463,19 462,18 461,18 460,17 459,17 458,16 456,16 455,15 453,15 452,14 450,14 449,13 446,13 445,12 441,12 440,11 431,11 430,10" stroke="url(#grad1)" stroke-width="2" /></svg>